<svg width="32" height="32" viewBox="0 0 32 32" fill="none" xmlns="http://www.w3.org/2000/svg">
  <circle cx="16" cy="16" r="16" fill="#2E5A2E"/>

  <path d="M16 4C16 4 14.5 8.5 12 11C10 13 6 13.5 6 13.5C6 13.5 9.5 15 11 18C11 15 13 14 16 14C19 14 21 15 21 18C22.5 15 26 13.5 26 13.5C26 13.5 22 13 20 11C17.5 8.5 16 4 16 4ZM16 30V20C14 20 12 21 12 23C12 26 16 28 16 30ZM16 30C16 28 20 26 20 23C20 21 18 20 16 20V30Z" fill="#D4AF37"/>

  <rect x="11" y="18.5" width="10" height="1.5" rx="0.75" fill="#D4AF37"/>
</svg>
