<svg width="150" height="150" viewBox="0 0 150 150" xmlns="http://www.w3.org/2000/svg">
    <!-- Background circle -->
    <circle cx="75" cy="75" r="75" fill="#fce4ec"/>
    
    <!-- Female silhouette -->
    <g fill="#c2185b">
        <!-- Head -->
        <circle cx="75" cy="45" r="18"/>
        
        <!-- Hair -->
        <path d="M 57 35 
                 C 57 25, 65 20, 75 20
                 C 85 20, 93 25, 93 35
                 C 93 30, 90 28, 85 30
                 C 80 25, 70 25, 65 30
                 C 60 28, 57 30, 57 35 Z"/>
        
        <!-- Body -->
        <path d="M 75 63 
                 C 85 63, 90 68, 90 75
                 L 88 120
                 C 88 125, 83 130, 78 130
                 L 72 130
                 C 67 130, 62 125, 62 120
                 L 60 75
                 C 60 68, 65 63, 75 63 Z"/>
        
        <!-- Arms -->
        <ellipse cx="52" cy="85" rx="7" ry="22" transform="rotate(-15 52 85)"/>
        <ellipse cx="98" cy="85" rx="7" ry="22" transform="rotate(15 98 85)"/>
        
        <!-- Legs -->
        <ellipse cx="68" cy="140" rx="7" ry="18"/>
        <ellipse cx="82" cy="140" rx="7" ry="18"/>
    </g>
    
    <!-- Female symbol -->
    <g fill="#c2185b" stroke="#c2185b" stroke-width="2">
        <circle cx="120" cy="25" r="8" fill="none"/>
        <line x1="120" y1="33" x2="120" y2="45"/>
        <line x1="115" y1="40" x2="125" y2="40"/>
    </g>
</svg>