<svg width="150" height="150" viewBox="0 0 150 150" xmlns="http://www.w3.org/2000/svg">
    <!-- Background circle -->
    <circle cx="75" cy="75" r="75" fill="#e3f2fd"/>
    
    <!-- Male silhouette -->
    <g fill="#1976d2">
        <!-- Head -->
        <circle cx="75" cy="45" r="20"/>
        
        <!-- Body -->
        <path d="M 75 65 
                 C 85 65, 95 70, 95 80
                 L 95 120
                 C 95 125, 90 130, 85 130
                 L 65 130
                 C 60 130, 55 125, 55 120
                 L 55 80
                 C 55 70, 65 65, 75 65 Z"/>
        
        <!-- Arms -->
        <ellipse cx="50" cy="85" rx="8" ry="25" transform="rotate(-20 50 85)"/>
        <ellipse cx="100" cy="85" rx="8" ry="25" transform="rotate(20 100 85)"/>
        
        <!-- Legs -->
        <ellipse cx="65" cy="140" rx="8" ry="20"/>
        <ellipse cx="85" cy="140" rx="8" ry="20"/>
    </g>
    
    <!-- Male symbol -->
    <g fill="#1976d2" stroke="#1976d2" stroke-width="2">
        <circle cx="120" cy="30" r="8" fill="none"/>
        <line x1="126" y1="24" x2="135" y2="15"/>
        <line x1="130" y1="15" x2="135" y2="15"/>
        <line x1="135" y1="15" x2="135" y2="20"/>
    </g>
</svg>